name Walk8.mot
datacolumns 19
datarows 25
range 2.93300000 2.95700000
endheader

                time	   L_ground_force_vx	   L_ground_force_vy	   L_ground_force_vz	   L_ground_force_px	   L_ground_force_py	   L_ground_force_pz	   R_ground_force_vx	   R_ground_force_vy	   R_ground_force_vz	   R_ground_force_px	   R_ground_force_py	   R_ground_force_pz	   L_ground_torque_x	   L_ground_torque_y	   L_ground_torque_z	   R_ground_torque_x	   R_ground_torque_y	   R_ground_torque_z	
          2.93300000	         -0.65128210	        731.76963193	        -49.51121409	          0.12200215	          0.00000000	          0.13781021	          0.00000000	          0.00000000	          0.00000000	          0.00000000	          0.00000000	          0.00000000	          0.00000000	         12.33653189	          0.00000000	          0.00000000	          0.00000000	          0.00000000	
          2.93400000	         -0.31767472	        731.33401459	        -49.66891912	          0.12228954	          0.00000000	          0.13796018	          0.00000000	          0.00000000	          0.00000000	          0.00000000	          0.00000000	          0.00000000	          0.00000000	         12.29770734	          0.00000000	          0.00000000	          0.00000000	          0.00000000	
          2.93500000	         -0.00926827	        730.87308369	        -49.79826513	          0.12250476	          0.00000000	          0.13810075	          0.00000000	          0.00000000	          0.00000000	          0.00000000	          0.00000000	          0.00000000	          0.00000000	         12.22473348	          0.00000000	          0.00000000	          0.00000000	          0.00000000	
          2.93600000	          0.27187887	        730.36426141	        -49.89927639	          0.12267685	          0.00000000	          0.13824412	          0.00000000	          0.00000000	          0.00000000	          0.00000000	          0.00000000	          0.00000000	          0.00000000	         12.12181032	          0.00000000	          0.00000000	          0.00000000	          0.00000000	
          2.93700000	          0.54152702	        729.78890941	        -49.99136453	          0.12282777	          0.00000000	          0.13838863	          0.00000000	          0.00000000	          0.00000000	          0.00000000	          0.00000000	          0.00000000	          0.00000000	         12.00967392	          0.00000000	          0.00000000	          0.00000000	          0.00000000	
          2.93800000	          0.82798602	        729.14092135	        -50.09791535	          0.12295792	          0.00000000	          0.13852277	          0.00000000	          0.00000000	          0.00000000	          0.00000000	          0.00000000	          0.00000000	          0.00000000	         11.91545443	          0.00000000	          0.00000000	          0.00000000	          0.00000000	
          2.93900000	          1.15862647	        728.44855806	        -50.23118488	          0.12307266	          0.00000000	          0.13864694	          0.00000000	          0.00000000	          0.00000000	          0.00000000	          0.00000000	          0.00000000	          0.00000000	         11.85995901	          0.00000000	          0.00000000	          0.00000000	          0.00000000	
          2.94000000	          1.53619613	        727.76335821	        -50.39025182	          0.12320564	          0.00000000	          0.13877388	          0.00000000	          0.00000000	          0.00000000	          0.00000000	          0.00000000	          0.00000000	          0.00000000	         11.84721259	          0.00000000	          0.00000000	          0.00000000	          0.00000000	
          2.94100000	          1.93099690	        727.12344885	        -50.56410375	          0.12339525	          0.00000000	          0.13891587	          0.00000000	          0.00000000	          0.00000000	          0.00000000	          0.00000000	          0.00000000	          0.00000000	         11.86108811	          0.00000000	          0.00000000	          0.00000000	          0.00000000	
          2.94200000	          2.30512439	        726.53071993	        -50.73791929	          0.12364752	          0.00000000	          0.13908310	          0.00000000	          0.00000000	          0.00000000	          0.00000000	          0.00000000	          0.00000000	          0.00000000	         11.87664037	          0.00000000	          0.00000000	          0.00000000	          0.00000000	
          2.94300000	          2.64170486	        725.94673759	        -50.90347721	          0.12392934	          0.00000000	          0.13927728	          0.00000000	          0.00000000	          0.00000000	          0.00000000	          0.00000000	          0.00000000	          0.00000000	         11.87747240	          0.00000000	          0.00000000	          0.00000000	          0.00000000	
          2.94400000	          2.95215721	        725.32136541	        -51.06076306	          0.12419764	          0.00000000	          0.13947841	          0.00000000	          0.00000000	          0.00000000	          0.00000000	          0.00000000	          0.00000000	          0.00000000	         11.85905990	          0.00000000	          0.00000000	          0.00000000	          0.00000000	
          2.94500000	          3.26015901	        724.64178885	        -51.21071027	          0.12443541	          0.00000000	          0.13965164	          0.00000000	          0.00000000	          0.00000000	          0.00000000	          0.00000000	          0.00000000	          0.00000000	         11.82158370	          0.00000000	          0.00000000	          0.00000000	          0.00000000	
          2.94600000	          3.57634225	        723.94197665	        -51.35114460	          0.12465330	          0.00000000	          0.13977219	          0.00000000	          0.00000000	          0.00000000	          0.00000000	          0.00000000	          0.00000000	          0.00000000	         11.76786317	          0.00000000	          0.00000000	          0.00000000	          0.00000000	
          2.94700000	          3.88599791	        723.26790674	        -51.47703918	          0.12485620	          0.00000000	          0.13984213	          0.00000000	          0.00000000	          0.00000000	          0.00000000	          0.00000000	          0.00000000	          0.00000000	         11.70349303	          0.00000000	          0.00000000	          0.00000000	          0.00000000	
          2.94800000	          4.16590928	        722.64094583	        -51.58589823	          0.12502497	          0.00000000	          0.13988749	          0.00000000	          0.00000000	          0.00000000	          0.00000000	          0.00000000	          0.00000000	          0.00000000	         11.63746827	          0.00000000	          0.00000000	          0.00000000	          0.00000000	
          2.94900000	          4.40857125	        722.05720070	        -51.68365382	          0.12514428	          0.00000000	          0.13994204	          0.00000000	          0.00000000	          0.00000000	          0.00000000	          0.00000000	          0.00000000	          0.00000000	         11.58285370	          0.00000000	          0.00000000	          0.00000000	          0.00000000	
          2.95000000	          4.62421830	        721.52958645	        -51.77819835	          0.12524059	          0.00000000	          0.14003358	          0.00000000	          0.00000000	          0.00000000	          0.00000000	          0.00000000	          0.00000000	          0.00000000	         11.54742917	          0.00000000	          0.00000000	          0.00000000	          0.00000000	
          2.95100000	          4.83140375	        721.10510301	        -51.87013192	          0.12537577	          0.00000000	          0.14018118	          0.00000000	          0.00000000	          0.00000000	          0.00000000	          0.00000000	          0.00000000	          0.00000000	         11.52494066	          0.00000000	          0.00000000	          0.00000000	          0.00000000	
          2.95200000	          5.04978173	        720.81692109	        -51.95797355	          0.12559761	          0.00000000	          0.14039095	          0.00000000	          0.00000000	          0.00000000	          0.00000000	          0.00000000	          0.00000000	          0.00000000	         11.50420072	          0.00000000	          0.00000000	          0.00000000	          0.00000000	
          2.95300000	          5.29245624	        720.63518814	        -52.04675878	          0.12589917	          0.00000000	          0.14064445	          0.00000000	          0.00000000	          0.00000000	          0.00000000	          0.00000000	          0.00000000	          0.00000000	         11.48195578	          0.00000000	          0.00000000	          0.00000000	          0.00000000	
          2.95400000	          5.56241840	        720.47168463	        -52.14307273	          0.12621729	          0.00000000	          0.14089655	          0.00000000	          0.00000000	          0.00000000	          0.00000000	          0.00000000	          0.00000000	          0.00000000	         11.46090617	          0.00000000	          0.00000000	          0.00000000	          0.00000000	
          2.95500000	          5.85655964	        720.23533904	        -52.24612388	          0.12647120	          0.00000000	          0.14109925	          0.00000000	          0.00000000	          0.00000000	          0.00000000	          0.00000000	          0.00000000	          0.00000000	         11.44106769	          0.00000000	          0.00000000	          0.00000000	          0.00000000	
          2.95600000	          6.17043775	        719.89784868	        -52.34819550	          0.12662744	          0.00000000	          0.14123249	          0.00000000	          0.00000000	          0.00000000	          0.00000000	          0.00000000	          0.00000000	          0.00000000	         11.41861255	          0.00000000	          0.00000000	          0.00000000	          0.00000000	
          2.95700000	          6.49889617	        719.50212525	        -52.43954691	          0.12673029	          0.00000000	          0.14131026	          0.00000000	          0.00000000	          0.00000000	          0.00000000	          0.00000000	          0.00000000	          0.00000000	         11.39013310	          0.00000000	          0.00000000	          0.00000000	          0.00000000	
